# xmcd
#
# Track frame offsets:
#	182
#	10573
#	25710
#	37197
#	51077
#	61874
#	74780
#	87562
#	103723
#	114928
#	128900
#	139637
#	153198
#	166957
#	180359
#	194175
#	208440
#	219792
#	232836
#	246287
#	261184
#	278581
#	291940
#	309085
#
# Disc length: 4298
#
# Revision: 2
# Processed by: cddbd v1.5.1PL0 Copyright (c) Steve Scherf et al.
# Submitted via: ExactAudioCopy v0.95a3
# Normalized: r1:DSETVAR1
#
DISCID=5510c818
DTITLE=Various Artist - Jazz à la Gitane vol 2
DYEAR=2003
DGENRE=Jazz
TTITLE0=Svenska Hotkvintetten - Hallelujah
TTITLE1=Hubert Rostaing - Première idée d'Eddy
TTITLE2=Helmut Zacharias - Bei dir war es immer so schon
TTITLE3=Django Reinhardt - Bei dir war es immer so schon
TTITLE4=Sven Asmussen trio - Bugle call rag
TTITLE5=Django Reinhardt - Blues en mineur
TTITLE6=String swing - Opus five
TTITLE7=Gus and gus - Harlem swing
TTITLE8=Quintette du club rythmique de Belgique - Swing 42
TTITLE9=Stephane Grappelly - Limehouse Blues
TTITLE10=Michel Warlop - Prise de courant
TTITLE11=The Italiani in America - Bai bai blu
TTITLE12=Salomon and his jive boys - My gal sal
TTITLE13=Louis Vola - El baile de los negritos
TTITLE14=Sarane Ferret - I can't give you anything but love
TTITLE15=Oscar Aleman - Sweet georgia brown
TTITLE16=Jerry Thomas - Sweet georgia brown
TTITLE17=Miller sextet - Sweet georgia brown
TTITLE18=Jam session n°4 - Minor blues
TTITLE19=Rythmin swing Yhtye - My serenade
TTITLE20=Vincentino - So it is
TTITLE21=Hubert Rostaing - Milk shake
TTITLE22=Django Reinhardt - Manoir de mes rêves
TTITLE23=Jeanne manet - Nuages
EXTD=YEAR: 2003
EXTT0=
EXTT1=
EXTT2=
EXTT3=
EXTT4=
EXTT5=
EXTT6=
EXTT7=
EXTT8=
EXTT9=
EXTT10=
EXTT11=
EXTT12=
EXTT13=
EXTT14=
EXTT15=
EXTT16=
EXTT17=
EXTT18=
EXTT19=
EXTT20=
EXTT21=
EXTT22=
EXTT23=
PLAYORDER=
